<svg width="98" height="55" fill="none" xmlns="http://www.w3.org/2000/svg"><path d="M1.485 50.544H2.55v-11.13H1.485v11.13zm7.703.075c2.31 0 4.005-1.68 4.005-4.02s-1.695-4.005-4.005-4.005c-2.31 0-4.02 1.665-4.02 4.005s1.71 4.02 4.02 4.02zm0-.945c-1.68 0-2.94-1.23-2.94-3.075 0-1.845 1.26-3.075 2.94-3.075s2.925 1.23 2.925 3.075c0 1.845-1.245 3.075-2.925 3.075zm12.915-7.02v1.515c-.66-1.035-1.8-1.575-3.12-1.575-2.25 0-3.96 1.545-3.96 3.81s1.71 3.84 3.96 3.84c1.29 0 2.415-.525 3.075-1.53v1.005c0 1.95-.915 2.865-2.91 2.865-1.215 0-2.355-.405-3.105-1.08l-.54.81c.825.78 2.235 1.215 3.675 1.215 2.61 0 3.945-1.23 3.945-3.945v-6.93h-1.02zM19.088 49.3c-1.74 0-2.985-1.185-2.985-2.895s1.245-2.88 2.985-2.88c1.74 0 3 1.17 3 2.88s-1.26 2.895-3 2.895zm8.003-8.37c.45 0 .78-.345.78-.78 0-.405-.345-.735-.78-.735-.435 0-.78.345-.78.75 0 .42.345.765.78.765zm-.54 9.615h1.065v-7.89H26.55v7.89zm6.593.075c2.055 0 3.255-.885 3.255-2.25 0-3.03-5.115-1.425-5.115-3.555 0-.75.63-1.305 2.055-1.305.81 0 1.635.195 2.325.675l.465-.855c-.66-.45-1.77-.735-2.79-.735-2.01 0-3.12.96-3.12 2.25 0 3.12 5.115 1.5 5.115 3.555 0 .78-.615 1.29-2.115 1.29-1.11 0-2.175-.39-2.805-.885l-.48.84c.645.555 1.905.975 3.21.975zm9.454-1.32c-.3.27-.735.405-1.17.405-.885 0-1.365-.51-1.365-1.44v-4.71h2.4v-.9h-2.4V40.93h-1.065v1.725h-1.41v.9h1.41v4.77c0 1.455.825 2.295 2.31 2.295.615 0 1.245-.18 1.665-.555l-.375-.765zm3.304-8.37c.45 0 .78-.345.78-.78 0-.405-.345-.735-.78-.735-.435 0-.78.345-.78.75 0 .42.345.765.78.765zm-.54 9.615h1.065v-7.89h-1.065v7.89zm7.748.075c1.335 0 2.46-.54 3.09-1.56l-.795-.54c-.54.795-1.38 1.155-2.295 1.155-1.725 0-2.985-1.215-2.985-3.075 0-1.845 1.26-3.075 2.985-3.075.915 0 1.755.375 2.295 1.17l.795-.54c-.63-1.035-1.755-1.56-3.09-1.56-2.355 0-4.065 1.65-4.065 4.005s1.71 4.02 4.065 4.02zm7.747 0c2.055 0 3.255-.885 3.255-2.25 0-3.03-5.115-1.425-5.115-3.555 0-.75.63-1.305 2.055-1.305.81 0 1.635.195 2.325.675l.465-.855c-.66-.45-1.77-.735-2.79-.735-2.01 0-3.12.96-3.12 2.25 0 3.12 5.115 1.5 5.115 3.555 0 .78-.615 1.29-2.115 1.29-1.11 0-2.175-.39-2.805-.885l-.48.84c.645.555 1.905.975 3.21.975zM31.926 34.026l-.071-24.914H24.95l-7.902 13.275L8.933 9.112H2.03v24.914h7.65V23.064l5.41 8.72h3.701l5.41-9.112.071 11.354h7.653zm10.538 0h8.4V15.625h7.296V9.112H35.168v6.513h7.296v18.4zm44.904 0h9.717L86.62 20.074l9.965-10.962H87.44l-8.186 9.04v-9.04h-8.257v24.914h8.257v-6.158l1.886-2.1 6.229 8.258z" fill="#3284FF"/><path d="M59.848 4.78a.363.363 0 00-.224.334v3.97h-9.058c-.2 0-.362.163-.362.363v5.797c0 .2.162.362.362.362h9.058v3.986a.364.364 0 00.618.257l7.253-7.229a.362.362 0 000-.513l-7.252-7.25a.362.362 0 00-.395-.078z" fill="#3284FF"/><path stroke="#040D21" stroke-width=".5" d="M34.756 12.351h32.845"/></svg>